<mxfile host="app.diagrams.net" modified="2021-09-11T18:46:16.352Z" agent="5.0 (X11)" etag="Jcq6zTfWYR2bFEt_g0dt" version="15.0.6" type="github">
  <diagram id="XtyKIoU8i20ujaV0Qph4" name="Page-1">
    <mxGraphModel dx="1350" dy="912" grid="1" gridSize="10" guides="1" tooltips="1" connect="1" arrows="1" fold="1" page="1" pageScale="1" pageWidth="850" pageHeight="1100" math="0" shadow="0">
      <root>
        <mxCell id="0" />
        <mxCell id="1" parent="0" />
        <mxCell id="po5aWfVw6HJRFRj6wO3o-3" style="edgeStyle=orthogonalEdgeStyle;rounded=0;orthogonalLoop=1;jettySize=auto;html=1;entryX=0;entryY=0.4;entryDx=0;entryDy=0;entryPerimeter=0;" edge="1" parent="1" source="po5aWfVw6HJRFRj6wO3o-1" target="po5aWfVw6HJRFRj6wO3o-2">
          <mxGeometry relative="1" as="geometry" />
        </mxCell>
        <mxCell id="po5aWfVw6HJRFRj6wO3o-6" style="edgeStyle=orthogonalEdgeStyle;rounded=0;orthogonalLoop=1;jettySize=auto;html=1;entryX=0;entryY=0.5;entryDx=0;entryDy=0;" edge="1" parent="1" source="po5aWfVw6HJRFRj6wO3o-1" target="po5aWfVw6HJRFRj6wO3o-5">
          <mxGeometry relative="1" as="geometry" />
        </mxCell>
        <mxCell id="po5aWfVw6HJRFRj6wO3o-7" style="edgeStyle=orthogonalEdgeStyle;rounded=0;orthogonalLoop=1;jettySize=auto;html=1;entryX=0;entryY=0.5;entryDx=0;entryDy=0;" edge="1" parent="1" source="po5aWfVw6HJRFRj6wO3o-1" target="po5aWfVw6HJRFRj6wO3o-4">
          <mxGeometry relative="1" as="geometry" />
        </mxCell>
        <mxCell id="po5aWfVw6HJRFRj6wO3o-1" value="bin" style="rounded=1;whiteSpace=wrap;html=1;" vertex="1" parent="1">
          <mxGeometry x="200" y="210" width="120" height="40" as="geometry" />
        </mxCell>
        <mxCell id="po5aWfVw6HJRFRj6wO3o-2" value="" style="rounded=1;whiteSpace=wrap;html=1;" vertex="1" parent="1">
          <mxGeometry x="305" y="270" width="120" height="60" as="geometry" />
        </mxCell>
        <mxCell id="po5aWfVw6HJRFRj6wO3o-4" value="" style="rounded=1;whiteSpace=wrap;html=1;" vertex="1" parent="1">
          <mxGeometry x="305" y="420" width="120" height="60" as="geometry" />
        </mxCell>
        <mxCell id="po5aWfVw6HJRFRj6wO3o-5" value="" style="rounded=1;whiteSpace=wrap;html=1;" vertex="1" parent="1">
          <mxGeometry x="305" y="340" width="120" height="60" as="geometry" />
        </mxCell>
      </root>
    </mxGraphModel>
  </diagram>
</mxfile>
